<svg xmlns="http://www.w3.org/2000/svg" width="12" height="9.601" viewBox="0 0 12 9.601">
  <path id="Icon_awesome-user-cog" data-name="Icon awesome-user-cog" d="M11.448,7a2.2,2.2,0,0,0,0-.8l.484-.279a.136.136,0,0,0,.062-.159,2.814,2.814,0,0,0-.623-1.076A.137.137,0,0,0,11.2,4.66l-.484.279a2.2,2.2,0,0,0-.692-.4V3.981a.137.137,0,0,0-.107-.133,2.829,2.829,0,0,0-1.241,0,.137.137,0,0,0-.107.133V4.54a2.2,2.2,0,0,0-.692.4L7.4,4.66a.137.137,0,0,0-.169.026A2.814,2.814,0,0,0,6.6,5.762a.138.138,0,0,0,.062.159L7.15,6.2a2.2,2.2,0,0,0,0,.8l-.484.279a.136.136,0,0,0-.062.159,2.828,2.828,0,0,0,.623,1.076.137.137,0,0,0,.169.026l.484-.279a2.2,2.2,0,0,0,.692.4V9.22a.137.137,0,0,0,.107.133,2.829,2.829,0,0,0,1.241,0,.137.137,0,0,0,.107-.133V8.662a2.2,2.2,0,0,0,.692-.4l.484.279a.137.137,0,0,0,.169-.026,2.814,2.814,0,0,0,.623-1.076.138.138,0,0,0-.062-.159L11.448,7ZM9.3,7.51A.909.909,0,1,1,10.21,6.6.91.91,0,0,1,9.3,7.51ZM4.2,4.8A2.4,2.4,0,1,0,1.8,2.4,2.4,2.4,0,0,0,4.2,4.8ZM7.973,9.048C7.93,9.025,7.887,9,7.846,8.975L7.7,9.061a.736.736,0,0,1-.909-.137,3.419,3.419,0,0,1-.754-1.305.733.733,0,0,1,.336-.857l.148-.086q0-.073,0-.146L6.37,6.443a.733.733,0,0,1-.336-.857c.017-.054.041-.109.06-.163-.071-.006-.141-.023-.214-.023H5.567a3.264,3.264,0,0,1-2.734,0H2.52A2.521,2.521,0,0,0,0,7.921V8.7a.9.9,0,0,0,.9.9H7.5a.9.9,0,0,0,.51-.159.73.73,0,0,1-.038-.221Z" fill="#7e7e7e"/>
</svg>
