<svg xmlns="http://www.w3.org/2000/svg" width="15.09" height="15.09" viewBox="0 0 15.09 15.09">
  <g id="Icon_feather-copy" data-name="Icon feather-copy" transform="translate(-2 -2)">
    <path id="Path_7" data-name="Path 7" d="M14.809,13.5H20.7a1.309,1.309,0,0,1,1.309,1.309V20.7A1.309,1.309,0,0,1,20.7,22.009H14.809A1.309,1.309,0,0,1,13.5,20.7V14.809A1.309,1.309,0,0,1,14.809,13.5Z" transform="translate(-5.918 -5.918)" fill="none" stroke="#000" stroke-linecap="round" stroke-linejoin="round" stroke-width="2"/>
    <path id="Path_8" data-name="Path 8" d="M4.964,11.509H4.309A1.309,1.309,0,0,1,3,10.2V4.309A1.309,1.309,0,0,1,4.309,3H10.2a1.309,1.309,0,0,1,1.309,1.309v.655" transform="translate(0 0)" fill="none" stroke="#000" stroke-linecap="round" stroke-linejoin="round" stroke-width="2"/>
  </g>
</svg>
