<svg xmlns="http://www.w3.org/2000/svg" width="48" height="48" viewBox="0 0 48 48">
  <g id="Google" transform="translate(-486 -221)">
    <circle id="Ellipse_1" data-name="Ellipse 1" cx="24" cy="24" r="24" transform="translate(486 221)" fill="#343434"/>
    <path id="Icon_ionic-logo-google" data-name="Icon ionic-logo-google" d="M26.453,13.268l-.118-.5H15.459v4.6h6.5a6.5,6.5,0,0,1-6.362,4.89,7.609,7.609,0,0,1-5.12-2.04,7.31,7.31,0,0,1-2.181-5.16,7.539,7.539,0,0,1,2.141-5.154,7.284,7.284,0,0,1,5.087-1.99A6.635,6.635,0,0,1,19.849,9.6L23.12,6.35a11.574,11.574,0,0,0-7.706-2.968h0A11.912,11.912,0,0,0,6.984,6.811a11.864,11.864,0,0,0-3.327,8.256,11.745,11.745,0,0,0,3.2,8.122,12.2,12.2,0,0,0,8.8,3.569,10.85,10.85,0,0,0,7.9-3.322,11.668,11.668,0,0,0,3.035-8.082A13.458,13.458,0,0,0,26.453,13.268Z" transform="translate(494.674 229.948)" fill="#d3d3d3"/>
  </g>
</svg>
