<svg xmlns="http://www.w3.org/2000/svg" width="23" height="13.417" viewBox="0 0 23 13.417">
  <g id="Icon_ionic-ios-menu" data-name="Icon ionic-ios-menu" transform="translate(-4.5 -10.125)">
    <path id="Path_4" data-name="Path 4" d="M26.542,12.09H5.458a.973.973,0,0,1-.958-.982h0a.973.973,0,0,1,.958-.982H26.542a.973.973,0,0,1,.958.982h0A.973.973,0,0,1,26.542,12.09Z" fill="#d3d3d3"/>
    <path id="Path_5" data-name="Path 5" d="M26.542,18.84H5.458a.973.973,0,0,1-.958-.982h0a.973.973,0,0,1,.958-.982H26.542a.973.973,0,0,1,.958.982h0A.973.973,0,0,1,26.542,18.84Z" transform="translate(0 -1.024)" fill="#d3d3d3"/>
    <path id="Path_6" data-name="Path 6" d="M26.542,25.59H5.458a.973.973,0,0,1-.958-.982h0a.973.973,0,0,1,.958-.982H26.542a.973.973,0,0,1,.958.982h0A.973.973,0,0,1,26.542,25.59Z" transform="translate(0 -2.048)" fill="#d3d3d3"/>
  </g>
</svg>
