<svg xmlns="http://www.w3.org/2000/svg" width="48" height="48" viewBox="0 0 48 48">
  <g id="Linkedin" transform="translate(-684 -221)">
    <circle id="Ellipse_3" data-name="Ellipse 3" cx="24" cy="24" r="24" transform="translate(684 221)" fill="#343434"/>
    <path id="Icon_awesome-linkedin-in" data-name="Icon awesome-linkedin-in" d="M4.53,20.237H.334V6.726h4.2ZM2.43,4.883A2.441,2.441,0,1,1,4.859,2.43,2.45,2.45,0,0,1,2.43,4.883Zm17.8,15.353H16.045V13.66c0-1.567-.032-3.577-2.181-3.577-2.181,0-2.515,1.7-2.515,3.465v6.69H7.158V6.726h4.024V8.569h.059a4.408,4.408,0,0,1,3.969-2.182c4.246,0,5.026,2.8,5.026,6.428v7.421Z" transform="translate(698.167 233.368)" fill="#d3d3d3"/>
  </g>
</svg>
