<svg xmlns="http://www.w3.org/2000/svg" xmlns:xlink="http://www.w3.org/1999/xlink" width="35" height="35" viewBox="0 0 35 35">
  <defs>
    <clipPath id="clip-path">
      <rect id="Rectangle_10" data-name="Rectangle 10" width="35" height="35"/>
    </clipPath>
    <linearGradient id="linear-gradient" x1="-0.181" y1="-0.161" x2="1.119" y2="1.234" gradientUnits="objectBoundingBox">
      <stop offset="0" stop-color="#202222"/>
      <stop offset="1" stop-color="#192234"/>
    </linearGradient>
    <linearGradient id="linear-gradient-2" x1="-0.181" y1="-0.161" x2="1.119" y2="1.234" gradientUnits="objectBoundingBox">
      <stop offset="0" stop-color="#192234"/>
      <stop offset="1" stop-color="#202222"/>
    </linearGradient>
  </defs>
  <g id="Survey_-_black" data-name="Survey - black" clip-path="url(#clip-path)">
    <g id="Rectangle_1" data-name="Rectangle 1" transform="translate(0 3.555)" fill="url(#linear-gradient)">
      <path d="M 28.44531631469727 30.94531631469727 L 2.999996185302734 30.94531631469727 C 1.621496200561523 30.94531631469727 0.4999962449073792 29.82381629943848 0.4999962449073792 28.44531631469727 L 0.4999962449073792 2.999996185302734 C 0.4999962449073792 1.621496200561523 1.621496200561523 0.4999962449073792 2.999996185302734 0.4999962449073792 L 28.44531631469727 0.4999962449073792 C 29.82381629943848 0.4999962449073792 30.94531631469727 1.621496200561523 30.94531631469727 2.999996185302734 L 30.94531631469727 28.44531631469727 C 30.94531631469727 29.82381629943848 29.82381629943848 30.94531631469727 28.44531631469727 30.94531631469727 Z" stroke="none"/>
      <path d="M 2.999996185302734 0.9999961853027344 C 1.897195816040039 0.9999961853027344 0.9999961853027344 1.897195816040039 0.9999961853027344 2.999996185302734 L 0.9999961853027344 28.44531631469727 C 0.9999961853027344 29.54811668395996 1.897195816040039 30.44531631469727 2.999996185302734 30.44531631469727 L 28.44531631469727 30.44531631469727 C 29.54811668395996 30.44531631469727 30.44531631469727 29.54811668395996 30.44531631469727 28.44531631469727 L 30.44531631469727 2.999996185302734 C 30.44531631469727 1.897195816040039 29.54811668395996 0.9999961853027344 28.44531631469727 0.9999961853027344 L 2.999996185302734 0.9999961853027344 M 2.999996185302734 -3.814697265625e-06 L 28.44531631469727 -3.814697265625e-06 C 30.1021671295166 -3.814697265625e-06 31.44531631469727 1.343145370483398 31.44531631469727 2.999996185302734 L 31.44531631469727 28.44531631469727 C 31.44531631469727 30.1021671295166 30.1021671295166 31.44531631469727 28.44531631469727 31.44531631469727 L 2.999996185302734 31.44531631469727 C 1.343145370483398 31.44531631469727 -3.814697265625e-06 30.1021671295166 -3.814697265625e-06 28.44531631469727 L -3.814697265625e-06 2.999996185302734 C -3.814697265625e-06 1.343145370483398 1.343145370483398 -3.814697265625e-06 2.999996185302734 -3.814697265625e-06 Z" stroke="none" fill="#fff"/>
    </g>
    <g id="Rectangle_2" data-name="Rectangle 2" transform="translate(18.047)" stroke="#00b980" stroke-width="1" fill="url(#linear-gradient-2)">
      <rect width="16.953" height="16.953" rx="3" stroke="none"/>
      <rect x="0.5" y="0.5" width="15.953" height="15.953" rx="2.5" fill="none"/>
    </g>
    <text id="S" transform="translate(22.422 12.82)" fill="#fff" font-size="12" font-family="HelveticaNeue-Bold, Helvetica Neue" font-weight="700"><tspan x="0" y="0">S</tspan></text>
    <rect id="Rectangle_3" data-name="Rectangle 3" width="3.828" height="3.828" transform="translate(4.375 11.484)" fill="rgba(255,255,255,0.2)"/>
    <rect id="Rectangle_4" data-name="Rectangle 4" width="3.828" height="3.828" transform="translate(4.375 17.5)" fill="rgba(255,255,255,0.2)"/>
    <rect id="Rectangle_5" data-name="Rectangle 5" width="3.828" height="3.828" transform="translate(4.375 23.516)" fill="rgba(255,255,255,0.2)"/>
  </g>
</svg>
